# File produced by Open Asset Import Library (http://www.assimp.sf.net)
# (assimp v3.1.151580502)

mtllib vent.mtl

# 88 vertex positions
v  -45.0418 35.4507 2.85813
v  -45.0418 36.6707 4.07815
v  -45.0418 43.607 -2.85814
v  -45.0418 42.387 -4.07817
v  45.0418 35.4507 2.85813
v  45.0418 42.387 -4.07817
v  45.0418 36.6707 4.07815
v  45.0418 43.607 -2.85814
v  -45.0418 25.6413 2.85813
v  -45.0418 26.8613 4.07816
v  -45.0418 33.7976 -2.85814
v  -45.0418 32.5776 -4.07816
v  45.0418 25.6413 2.85813
v  45.0418 32.5776 -4.07816
v  45.0418 26.8613 4.07816
v  45.0418 33.7976 -2.85814
v  -45.0418 15.8319 2.85813
v  -45.0418 17.0519 4.07816
v  -45.0418 23.9882 -2.85814
v  -45.0418 22.7682 -4.07816
v  45.0418 15.8319 2.85813
v  45.0418 22.7682 -4.07816
v  45.0418 17.0519 4.07816
v  45.0418 23.9882 -2.85814
v  -45.0418 6.02246 2.85814
v  -45.0418 7.24248 4.07816
v  -45.0418 14.1788 -2.85814
v  -45.0418 12.9588 -4.07816
v  45.0418 6.02246 2.85814
v  45.0418 12.9588 -4.07816
v  45.0418 7.24248 4.07816
v  45.0418 14.1788 -2.85814
v  -45.0418 -3.78694 2.85814
v  -45.0418 -2.56692 4.07816
v  -45.0418 4.36938 -2.85813
v  -45.0418 3.14935 -4.07816
v  45.0418 -3.78694 2.85814
v  45.0418 3.14935 -4.07816
v  45.0418 -2.56692 4.07816
v  45.0418 4.36938 -2.85813
v  -45.0418 -13.5963 2.85814
v  -45.0418 -12.3763 4.07816
v  -45.0418 -5.44002 -2.85813
v  -45.0418 -6.66005 -4.07816
v  45.0418 -13.5963 2.85814
v  45.0418 -6.66005 -4.07816
v  45.0418 -12.3763 4.07816
v  45.0418 -5.44002 -2.85813
v  -45.0418 -23.4057 2.85814
v  -45.0418 -22.1857 4.07817
v  -45.0418 -15.2494 -2.85813
v  -45.0418 -16.4694 -4.07815
v  45.0418 -23.4057 2.85814
v  45.0418 -16.4694 -4.07815
v  45.0418 -22.1857 4.07817
v  45.0418 -15.2494 -2.85813
v  -45.0418 -33.2151 2.85814
v  -45.0418 -31.9951 4.07817
v  -45.0418 -25.0588 -2.85813
v  -45.0418 -26.2789 -4.07815
v  45.0418 -33.2151 2.85814
v  45.0418 -26.2789 -4.07815
v  45.0418 -31.9951 4.07817
v  45.0418 -25.0588 -2.85813
v  -45.0418 -43.0246 2.85814
v  -45.0418 -41.8045 4.07816
v  -45.0418 -34.8682 -2.85814
v  -45.0418 -36.0883 -4.07816
v  45.0418 -43.0246 2.85814
v  45.0418 -36.0883 -4.07816
v  45.0418 -41.8045 4.07816
v  45.0418 -34.8682 -2.85814
v  50.2496 50.7038 2.7435
v  50.2496 50.7038 -2.74351
v  -50.2496 50.7038 -2.74351
v  -50.2496 50.7038 2.7435
v  -50.2496 -49.7955 -2.7435
v  -50.2496 -49.7955 2.74351
v  50.2496 -49.7955 -2.7435
v  50.2496 -49.7955 2.74351
v  -45.0418 -44.5877 -2.7435
v  45.0418 -44.5877 -2.7435
v  45.0418 45.4959 -2.74351
v  -45.0418 -44.5877 2.74351
v  -45.0418 45.4959 2.7435
v  45.0418 45.4959 2.7435
v  45.0418 -44.5877 2.74351
v  -45.0418 45.4959 -2.74351

# 280 UV coordinates
vt 0.791375 0.629678 0
vt 0.840204 0.629678 0
vt 0.840204 0.422954 0
vt 0.791375 0.422954 0
vt 0.422954 0.686112 0
vt 0.422954 0.734941 0
vt 0.629678 0.734941 0
vt 0.629678 0.686112 0
vt 0.63348 0.682309 0
vt 0.682309 0.682309 0
vt 0.682309 0.475585 0
vt 0.63348 0.475585 0
vt 0.422954 0.791375 0
vt 0.422954 0.840204 0
vt 0.629678 0.840204 0
vt 0.629678 0.791375 0
vt 0.978148 0.998099 0
vt 0.978148 0.94927 0
vt 0.678157 0.94927 0
vt 0.678157 0.998099 0
vt 0.654797 0.998099 0
vt 0.654797 0.94927 0
vt 0.354805 0.94927 0
vt 0.354805 0.998099 0
vt 0.528217 0.682309 0
vt 0.577046 0.682309 0
vt 0.577046 0.475585 0
vt 0.528217 0.475585 0
vt 0.422954 0.738743 0
vt 0.422954 0.787573 0
vt 0.629678 0.787573 0
vt 0.629678 0.738743 0
vt 0.422954 0.629678 0
vt 0.471783 0.629678 0
vt 0.471783 0.422954 0
vt 0.422954 0.422954 0
vt 0.475585 0.422954 0
vt 0.475585 0.471783 0
vt 0.682309 0.471783 0
vt 0.682309 0.422954 0
vt 0.998099 0.419151 0
vt 0.998099 0.370322 0
vt 0.94927 0.370322 0
vt 0.94927 0.419151 0
vt 0.998099 0.313888 0
vt 0.998099 0.265059 0
vt 0.94927 0.265059 0
vt 0.94927 0.313888 0
vt 0.738743 0.419151 0
vt 0.787573 0.419151 0
vt 0.787573 0.212427 0
vt 0.738743 0.212427 0
vt 0.00190114 0.738743 0
vt 0.00190114 0.787573 0
vt 0.208625 0.787573 0
vt 0.208625 0.738743 0
vt 0.580849 0.682309 0
vt 0.629678 0.682309 0
vt 0.629678 0.475585 0
vt 0.580849 0.475585 0
vt 0.212427 0.738743 0
vt 0.212427 0.787573 0
vt 0.419151 0.787573 0
vt 0.419151 0.738743 0
vt 0.998099 0.261257 0
vt 0.998099 0.212427 0
vt 0.94927 0.212427 0
vt 0.94927 0.261257 0
vt 0.297682 0.291068 0
vt 0.297682 0.242238 0
vt 0.0066593 0.242238 0
vt 0.0066593 0.291068 0
vt 0.686112 0.629678 0
vt 0.734941 0.629678 0
vt 0.734941 0.422954 0
vt 0.686112 0.422954 0
vt 0.00190114 0.791375 0
vt 0.00190114 0.840204 0
vt 0.208625 0.840204 0
vt 0.208625 0.791375 0
vt 0.738743 0.208625 0
vt 0.787573 0.208625 0
vt 0.787573 0.00190114 0
vt 0.738743 0.00190114 0
vt 0.212427 0.791375 0
vt 0.212427 0.840204 0
vt 0.419151 0.840204 0
vt 0.419151 0.791375 0
vt 0.612592 0.353568 0
vt 0.612592 0.304738 0
vt 0.321569 0.304738 0
vt 0.321569 0.353568 0
vt 0.613817 0.412161 0
vt 0.613817 0.363332 0
vt 0.322794 0.363332 0
vt 0.322794 0.412161 0
vt 0.738743 0.629678 0
vt 0.787573 0.629678 0
vt 0.787573 0.422954 0
vt 0.738743 0.422954 0
vt 0.63348 0.686112 0
vt 0.63348 0.734941 0
vt 0.840204 0.734941 0
vt 0.840204 0.686112 0
vt 0.791375 0.208625 0
vt 0.840204 0.208625 0
vt 0.840204 0.00190114 0
vt 0.791375 0.00190114 0
vt 0.63348 0.738743 0
vt 0.63348 0.787573 0
vt 0.840204 0.787573 0
vt 0.840204 0.738743 0
vt 0.300133 0.412161 0
vt 0.300133 0.363332 0
vt 0.00910994 0.363332 0
vt 0.00910994 0.412161 0
vt 0.945467 0.945467 0
vt 0.945467 0.896638 0
vt 0.896638 0.896638 0
vt 0.896638 0.945467 0
vt 0.844006 0.208625 0
vt 0.892836 0.208625 0
vt 0.892836 0.00190114 0
vt 0.844006 0.00190114 0
vt 0.63348 0.791375 0
vt 0.63348 0.840204 0
vt 0.840204 0.840204 0
vt 0.840204 0.791375 0
vt 0.844006 0.419151 0
vt 0.892836 0.419151 0
vt 0.892836 0.212427 0
vt 0.844006 0.212427 0
vt 0.00190114 0.844006 0
vt 0.00190114 0.892836 0
vt 0.208625 0.892836 0
vt 0.208625 0.844006 0
vt 0.892836 0.945467 0
vt 0.892836 0.896638 0
vt 0.844006 0.896638 0
vt 0.844006 0.945467 0
vt 0.501787 0.181123 0
vt 0.134115 0.181123 0
vt 0.134115 0.229953 0
vt 0.501787 0.229953 0
vt 0.844006 0.840204 0
vt 0.892836 0.840204 0
vt 0.892836 0.63348 0
vt 0.844006 0.63348 0
vt 0.422954 0.844006 0
vt 0.422954 0.892836 0
vt 0.629678 0.892836 0
vt 0.629678 0.844006 0
vt 0.896638 0.208625 0
vt 0.945467 0.208625 0
vt 0.945467 0.00190114 0
vt 0.896638 0.00190114 0
vt 0.63348 0.844006 0
vt 0.63348 0.892836 0
vt 0.840204 0.892836 0
vt 0.840204 0.844006 0
vt 0.840204 0.682309 0
vt 0.840204 0.63348 0
vt 0.791375 0.63348 0
vt 0.791375 0.682309 0
vt 0.787573 0.682309 0
vt 0.787573 0.63348 0
vt 0.738743 0.63348 0
vt 0.738743 0.682309 0
vt 0.896638 0.629678 0
vt 0.945467 0.629678 0
vt 0.945467 0.422954 0
vt 0.896638 0.422954 0
vt 0.212427 0.896638 0
vt 0.212427 0.945467 0
vt 0.419151 0.945467 0
vt 0.419151 0.896638 0
vt 0.896638 0.840204 0
vt 0.945467 0.840204 0
vt 0.945467 0.63348 0
vt 0.896638 0.63348 0
vt 0.422954 0.896638 0
vt 0.422954 0.945467 0
vt 0.629678 0.945467 0
vt 0.629678 0.896638 0
vt 0.734941 0.682309 0
vt 0.734941 0.63348 0
vt 0.686112 0.63348 0
vt 0.686112 0.682309 0
vt 0.471783 0.682309 0
vt 0.471783 0.63348 0
vt 0.422954 0.63348 0
vt 0.422954 0.682309 0
vt 0.94927 0.208625 0
vt 0.998099 0.208625 0
vt 0.998099 0.00190114 0
vt 0.94927 0.00190114 0
vt 0.63348 0.896638 0
vt 0.63348 0.945467 0
vt 0.840204 0.945467 0
vt 0.840204 0.896638 0
vt 0.896638 0.419151 0
vt 0.945467 0.419151 0
vt 0.945467 0.212427 0
vt 0.896638 0.212427 0
vt 0.00190114 0.896638 0
vt 0.00190114 0.945467 0
vt 0.208625 0.945467 0
vt 0.208625 0.896638 0
vt 0.892836 0.892836 0
vt 0.892836 0.844006 0
vt 0.844006 0.844006 0
vt 0.844006 0.892836 0
vt 0.945467 0.892836 0
vt 0.945467 0.844006 0
vt 0.896638 0.844006 0
vt 0.896638 0.892836 0
vt 0.892836 0.629678 0
vt 0.892836 0.422954 0
vt 0.844006 0.422954 0
vt 0.844006 0.629678 0
vt 0.00190113 0.483757 0
vt 0.00190113 0.531333 0
vt 0.419151 0.531333 0
vt 0.419151 0.483757 0
vt 0.840204 0.419151 0
vt 0.840204 0.212427 0
vt 0.791375 0.212427 0
vt 0.791375 0.419151 0
vt 0.00190113 0.532208 0
vt 0.00190113 0.579784 0
vt 0.419151 0.579784 0
vt 0.419151 0.532208 0
vt 0.298908 0.353568 0
vt 0.298908 0.304738 0
vt 0.00788471 0.304738 0
vt 0.00788471 0.353568 0
vt 0.63348 0.419151 0
vt 0.682309 0.419151 0
vt 0.682309 0.00190114 0
vt 0.63348 0.00190114 0
vt 0.948808 0.872646 0
vt 0.997637 0.872646 0
vt 0.997637 0.455395 0
vt 0.948808 0.455395 0
vt 0.686112 0.419151 0
vt 0.734941 0.419151 0
vt 0.734941 0.00190114 0
vt 0.686112 0.00190114 0
vt 0.00190114 0.63348 0
vt 0.00190114 0.682309 0
vt 0.419151 0.682309 0
vt 0.419151 0.63348 0
vt 0.611367 0.291068 0
vt 0.611367 0.242238 0
vt 0.320344 0.242238 0
vt 0.320344 0.291068 0
vt 0.50304 0.166545 0
vt 0.50304 0.117715 0
vt 0.135963 0.117715 0
vt 0.135963 0.166545 0
vt 0.331445 0.998099 0
vt 0.331445 0.94927 0
vt 0.0314535 0.94927 0
vt 0.0314535 0.998099 0
vt 0.524415 0.682309 0
vt 0.524415 0.475585 0
vt 0.475585 0.475585 0
vt 0.475585 0.682309 0
vt 0.00190113 0.628236 0
vt 0.419151 0.628236 0
vt 0.419151 0.580659 0
vt 0.00190113 0.580659 0
vt 0.418982 0.425623 0
vt 0.0017321 0.425623 0
vt 0.00173211 0.480941 0
vt 0.418982 0.480941 0
vt 0.212427 0.892836 0
vt 0.419151 0.892836 0
vt 0.419151 0.844006 0
vt 0.212427 0.844006 0

# 39 vertex normals
vn -1 2.82817e-13 1.73592e-06
vn 4.67924e-24 -0.707107 -0.707107
vn 1 8.89005e-38 6.61745e-24
vn -4.67924e-24 0.707107 0.707107
vn -4.67924e-24 -0.707107 0.707107
vn 4.67924e-24 0.707107 -0.707107
vn -1 2.82817e-13 1.73592e-06
vn 4.67924e-24 -0.707107 -0.707107
vn -4.67924e-24 0.707107 0.707107
vn -4.67924e-24 -0.707106 0.707107
vn 4.67924e-24 0.707107 -0.707107
vn 4.67924e-24 -0.707107 -0.707107
vn -4.67924e-24 0.707107 0.707107
vn -4.67924e-24 -0.707106 0.707107
vn -1 2.82817e-13 1.73592e-06
vn -4.67924e-24 0.707107 0.707107
vn 4.67924e-24 0.707106 -0.707107
vn -1 2.82817e-13 1.73592e-06
vn -4.67924e-24 0.707107 0.707107
vn 4.67924e-24 0.707106 -0.707107
vn -1 2.82817e-13 1.73592e-06
vn 4.67924e-24 -0.707107 -0.707107
vn -4.67924e-24 0.707107 0.707107
vn -1 -2.82817e-13 -1.73592e-06
vn 4.67924e-24 -0.707107 -0.707107
vn 1 2.82817e-13 1.73592e-06
vn -4.67924e-24 0.707107 0.707107
vn -4.67923e-24 -0.707108 0.707106
vn 1.07812e-30 1 -1.62921e-07
vn -1 -8.89005e-38 -6.61745e-24
vn -1.07812e-30 -1 1.62921e-07
vn 6.61745e-24 -1.21268e-07 -1
vn 6.61745e-24 -1.62921e-07 -1
vn -6.61745e-24 1.62921e-07 1
vn -6.61745e-24 1.21268e-07 1
vn -6.61745e-24 2.04574e-07 1
vn 6.61745e-24 -2.04574e-07 -1
vn 1 8.89005e-38 6.61745e-24
vn -1 -8.89005e-38 -6.61745e-24

# Mesh 'vent_vent' with 140 faces
g vent_vent
usemtl vent
f  1/1/1 2/2/1 3/3/1
f  3/3/1 4/4/1 1/1/1
f  5/5/2 1/6/2 4/7/2
f  4/7/2 6/8/2 5/5/2
f  7/9/3 5/10/3 6/11/3
f  6/11/3 8/12/3 7/9/3
f  2/13/4 7/14/4 8/15/4
f  8/15/4 3/16/4 2/13/4
f  2/17/5 1/18/5 5/19/5
f  5/19/5 7/20/5 2/17/5
f  8/21/6 6/22/6 4/23/6
f  4/23/6 3/24/6 8/21/6
f  9/25/7 10/26/7 11/27/7
f  11/27/7 12/28/7 9/25/7
f  13/29/8 9/30/8 12/31/8
f  12/31/8 14/32/8 13/29/8
f  15/33/3 13/34/3 14/35/3
f  14/35/3 16/36/3 15/33/3
f  10/37/9 15/38/9 16/39/9
f  16/39/9 11/40/9 10/37/9
f  10/41/10 9/42/10 13/43/10
f  13/43/10 15/44/10 10/41/10
f  16/45/11 14/46/11 12/47/11
f  12/47/11 11/48/11 16/45/11
f  17/49/7 18/50/7 19/51/7
f  19/51/7 20/52/7 17/49/7
f  21/53/12 17/54/12 20/55/12
f  20/55/12 22/56/12 21/53/12
f  23/57/3 21/58/3 22/59/3
f  22/59/3 24/60/3 23/57/3
f  18/61/13 23/62/13 24/63/13
f  24/63/13 19/64/13 18/61/13
f  18/65/14 17/66/14 21/67/14
f  21/67/14 23/68/14 18/65/14
f  24/69/11 22/70/11 20/71/11
f  20/71/11 19/72/11 24/69/11
f  25/73/15 26/74/15 27/75/15
f  27/75/15 28/76/15 25/73/15
f  29/77/8 25/78/8 28/79/8
f  28/79/8 30/80/8 29/77/8
f  31/81/3 29/82/3 30/83/3
f  30/83/3 32/84/3 31/81/3
f  26/85/16 31/86/16 32/87/16
f  32/87/16 27/88/16 26/85/16
f  26/89/14 25/90/14 29/91/14
f  29/91/14 31/92/14 26/89/14
f  32/93/17 30/94/17 28/95/17
f  28/95/17 27/96/17 32/93/17
f  33/97/18 34/98/18 35/99/18
f  35/99/18 36/100/18 33/97/18
f  37/101/2 33/102/2 36/103/2
f  36/103/2 38/104/2 37/101/2
f  39/105/3 37/106/3 38/107/3
f  38/107/3 40/108/3 39/105/3
f  34/109/19 39/110/19 40/111/19
f  40/111/19 35/112/19 34/109/19
f  34/113/5 33/114/5 37/115/5
f  37/115/5 39/116/5 34/113/5
f  40/117/20 38/118/20 36/119/20
f  36/119/20 35/120/20 40/117/20
f  41/121/21 42/122/21 43/123/21
f  43/123/21 44/124/21 41/121/21
f  45/125/22 41/126/22 44/127/22
f  44/127/22 46/128/22 45/125/22
f  47/129/3 45/130/3 46/131/3
f  46/131/3 48/132/3 47/129/3
f  42/133/23 47/134/23 48/135/23
f  48/135/23 43/136/23 42/133/23
f  42/137/10 41/138/10 45/139/10
f  45/139/10 47/140/10 42/137/10
f  48/141/20 46/142/20 44/143/20
f  44/143/20 43/144/20 48/141/20
f  49/145/7 50/146/7 51/147/7
f  51/147/7 52/148/7 49/145/7
f  53/149/2 49/150/2 52/151/2
f  52/151/2 54/152/2 53/149/2
f  55/153/3 53/154/3 54/155/3
f  54/155/3 56/156/3 55/153/3
f  50/157/19 55/158/19 56/159/19
f  56/159/19 51/160/19 50/157/19
f  50/161/5 49/162/5 53/163/5
f  53/163/5 55/164/5 50/161/5
f  56/165/20 54/166/20 52/167/20
f  52/167/20 51/168/20 56/165/20
f  57/169/1 58/170/1 59/171/1
f  59/171/1 60/172/1 57/169/1
f  61/173/2 57/174/2 60/175/2
f  60/175/2 62/176/2 61/173/2
f  63/177/3 61/178/3 62/179/3
f  62/179/3 64/180/3 63/177/3
f  58/181/19 63/182/19 64/183/19
f  64/183/19 59/184/19 58/181/19
f  58/185/5 57/186/5 61/187/5
f  61/187/5 63/188/5 58/185/5
f  64/189/20 62/190/20 60/191/20
f  60/191/20 59/192/20 64/189/20
f  65/193/24 66/194/24 67/195/24
f  67/195/24 68/196/24 65/193/24
f  69/197/25 65/198/25 68/199/25
f  68/199/25 70/200/25 69/197/25
f  71/201/26 69/202/26 70/203/26
f  70/203/26 72/204/26 71/201/26
f  66/205/27 71/206/27 72/207/27
f  72/207/27 67/208/27 66/205/27
f  66/209/28 65/210/28 69/211/28
f  69/211/28 71/212/28 66/209/28
f  72/213/17 70/214/17 68/215/17
f  68/215/17 67/216/17 72/213/17
f  73/217/29 74/218/29 75/219/29
f  75/219/29 76/220/29 73/217/29
f  77/221/30 78/222/30 76/223/30
f  76/223/30 75/224/30 77/221/30
f  78/225/31 77/226/31 79/227/31
f  79/227/31 80/228/31 78/225/31
f  80/229/3 79/230/3 74/231/3
f  74/231/3 73/232/3 80/229/3
f  77/233/32 81/234/32 82/235/32
f  82/235/32 79/236/32 77/233/32
f  79/237/33 82/238/33 83/239/33
f  83/239/33 74/240/33 79/237/33
f  78/241/34 84/242/34 85/243/34
f  85/243/34 76/244/34 78/241/34
f  73/245/34 86/246/34 87/247/34
f  87/247/34 80/248/34 73/245/34
f  75/249/33 88/250/33 81/251/33
f  81/251/33 77/252/33 75/249/33
f  76/253/35 85/254/35 86/255/35
f  86/255/35 73/256/35 76/253/35
f  80/257/36 87/258/36 84/259/36
f  84/259/36 78/260/36 80/257/36
f  74/261/37 83/262/37 88/263/37
f  88/263/37 75/264/37 74/261/37
f  87/265/29 82/266/29 81/267/29
f  81/267/29 84/268/29 87/265/29
f  85/269/38 84/270/38 81/271/38
f  81/271/38 88/272/38 85/269/38
f  83/273/39 82/274/39 87/275/39
f  87/275/39 86/276/39 83/273/39
f  83/277/31 86/278/31 85/279/31
f  85/279/31 88/280/31 83/277/31

